<mxfile host="65bd71144e">
    <diagram id="q_FwZIgj0VnW3cVJjup7" name="Page-1">
        <mxGraphModel dx="322" dy="586" grid="1" gridSize="10" guides="1" tooltips="1" connect="1" arrows="1" fold="1" page="1" pageScale="1" pageWidth="827" pageHeight="1169" math="0" shadow="0">
            <root>
                <mxCell id="0"/>
                <mxCell id="1" parent="0"/>
                <mxCell id="2" value="" style="shape=actor;whiteSpace=wrap;html=1;" vertex="1" parent="1">
                    <mxGeometry x="40" y="75" width="40" height="60" as="geometry"/>
                </mxCell>
                <mxCell id="3" value="User" style="text;html=1;align=center;verticalAlign=middle;resizable=0;points=[];autosize=1;strokeColor=none;fillColor=none;" vertex="1" parent="1">
                    <mxGeometry x="34" y="40" width="50" height="30" as="geometry"/>
                </mxCell>
                <mxCell id="4" value="Scooter&lt;br&gt;App" style="shape=offPageConnector;whiteSpace=wrap;html=1;" vertex="1" parent="1">
                    <mxGeometry x="374" y="60" width="80" height="55" as="geometry"/>
                </mxCell>
                <mxCell id="5" value="" style="endArrow=none;dashed=1;html=1;" edge="1" parent="1">
                    <mxGeometry width="50" height="50" relative="1" as="geometry">
                        <mxPoint x="59.5" y="460" as="sourcePoint"/>
                        <mxPoint x="59.5" y="150" as="targetPoint"/>
                    </mxGeometry>
                </mxCell>
                <mxCell id="6" value="" style="endArrow=none;dashed=1;html=1;startArrow=none;" edge="1" parent="1" source="21">
                    <mxGeometry width="50" height="50" relative="1" as="geometry">
                        <mxPoint x="414" y="460" as="sourcePoint"/>
                        <mxPoint x="414" y="150" as="targetPoint"/>
                    </mxGeometry>
                </mxCell>
                <mxCell id="7" value="" style="endArrow=none;dashed=1;html=1;" edge="1" parent="1">
                    <mxGeometry width="50" height="50" relative="1" as="geometry">
                        <mxPoint x="740" y="450" as="sourcePoint"/>
                        <mxPoint x="740" y="140" as="targetPoint"/>
                    </mxGeometry>
                </mxCell>
                <mxCell id="8" value="Scooter" style="shape=offPageConnector;whiteSpace=wrap;html=1;" vertex="1" parent="1">
                    <mxGeometry x="700" y="60" width="90" height="55" as="geometry"/>
                </mxCell>
                <mxCell id="9" value="" style="endArrow=classic;html=1;" edge="1" parent="1">
                    <mxGeometry width="50" height="50" relative="1" as="geometry">
                        <mxPoint x="60" y="185" as="sourcePoint"/>
                        <mxPoint x="410" y="185" as="targetPoint"/>
                    </mxGeometry>
                </mxCell>
                <mxCell id="10" value="login()" style="text;html=1;align=center;verticalAlign=middle;resizable=0;points=[];autosize=1;strokeColor=none;fillColor=none;" vertex="1" parent="1">
                    <mxGeometry x="195" y="160" width="60" height="30" as="geometry"/>
                </mxCell>
                <mxCell id="11" value="" style="endArrow=classic;html=1;" edge="1" parent="1">
                    <mxGeometry width="50" height="50" relative="1" as="geometry">
                        <mxPoint x="414.0000000000002" y="225" as="sourcePoint"/>
                        <mxPoint x="740" y="225" as="targetPoint"/>
                    </mxGeometry>
                </mxCell>
                <mxCell id="12" value="createScooter()" style="text;html=1;align=center;verticalAlign=middle;resizable=0;points=[];autosize=1;strokeColor=none;fillColor=none;" vertex="1" parent="1">
                    <mxGeometry x="524" y="200" width="110" height="30" as="geometry"/>
                </mxCell>
                <mxCell id="13" value="" style="endArrow=classic;html=1;" edge="1" parent="1">
                    <mxGeometry width="50" height="50" relative="1" as="geometry">
                        <mxPoint x="740" y="302" as="sourcePoint"/>
                        <mxPoint x="414" y="302" as="targetPoint"/>
                    </mxGeometry>
                </mxCell>
                <mxCell id="14" value="dockScooter()" style="text;html=1;align=center;verticalAlign=middle;resizable=0;points=[];autosize=1;strokeColor=none;fillColor=none;" vertex="1" parent="1">
                    <mxGeometry x="529" y="277" width="100" height="30" as="geometry"/>
                </mxCell>
                <mxCell id="15" value="" style="endArrow=classic;html=1;" edge="1" parent="1">
                    <mxGeometry width="50" height="50" relative="1" as="geometry">
                        <mxPoint x="410" y="395" as="sourcePoint"/>
                        <mxPoint x="60" y="395" as="targetPoint"/>
                    </mxGeometry>
                </mxCell>
                <mxCell id="16" value="logout()" style="text;html=1;align=center;verticalAlign=middle;resizable=0;points=[];autosize=1;strokeColor=none;fillColor=none;" vertex="1" parent="1">
                    <mxGeometry x="215" y="370" width="60" height="30" as="geometry"/>
                </mxCell>
                <mxCell id="17" value="" style="endArrow=classic;html=1;" edge="1" parent="1">
                    <mxGeometry width="50" height="50" relative="1" as="geometry">
                        <mxPoint x="415.0000000000002" y="252" as="sourcePoint"/>
                        <mxPoint x="741" y="252" as="targetPoint"/>
                    </mxGeometry>
                </mxCell>
                <mxCell id="18" value="rentScooter()" style="text;html=1;align=center;verticalAlign=middle;resizable=0;points=[];autosize=1;strokeColor=none;fillColor=none;" vertex="1" parent="1">
                    <mxGeometry x="535" y="227" width="90" height="30" as="geometry"/>
                </mxCell>
                <mxCell id="19" value="" style="endArrow=classic;startArrow=classic;html=1;" edge="1" parent="1">
                    <mxGeometry width="50" height="50" relative="1" as="geometry">
                        <mxPoint x="60" y="350" as="sourcePoint"/>
                        <mxPoint x="740" y="350" as="targetPoint"/>
                    </mxGeometry>
                </mxCell>
                <mxCell id="22" value="" style="endArrow=none;dashed=1;html=1;" edge="1" parent="1" target="21">
                    <mxGeometry width="50" height="50" relative="1" as="geometry">
                        <mxPoint x="414" y="460" as="sourcePoint"/>
                        <mxPoint x="414" y="150" as="targetPoint"/>
                    </mxGeometry>
                </mxCell>
                <mxCell id="21" value="print()" style="text;html=1;align=center;verticalAlign=middle;resizable=0;points=[];autosize=1;strokeColor=none;fillColor=none;" vertex="1" parent="1">
                    <mxGeometry x="389" y="320" width="50" height="30" as="geometry"/>
                </mxCell>
                <mxCell id="23" value="" style="endArrow=classic;html=1;" edge="1" parent="1">
                    <mxGeometry width="50" height="50" relative="1" as="geometry">
                        <mxPoint x="414" y="275" as="sourcePoint"/>
                        <mxPoint x="60" y="275" as="targetPoint"/>
                    </mxGeometry>
                </mxCell>
                <mxCell id="24" value="requestUser()" style="text;html=1;align=center;verticalAlign=middle;resizable=0;points=[];autosize=1;strokeColor=none;fillColor=none;" vertex="1" parent="1">
                    <mxGeometry x="199" y="250" width="100" height="30" as="geometry"/>
                </mxCell>
            </root>
        </mxGraphModel>
    </diagram>
</mxfile>